<?xml version="1.0" encoding="UTF-8"?>
<svg version="1.1" xmlns="http://www.w3.org/2000/svg" width="500" height="500">
<path d="M0 0 C2.66710654 0.15240609 4.4505871 0.49364919 6.4453125 2.33203125 C10 6.50625 10 6.50625 10 9 C10.66 9 11.32 9 12 9 C13.29555528 10.95469744 14.37525799 12.99134206 15.48828125 15.0546875 C16.87934475 17.18804863 16.87934475 17.18804863 19.38671875 17.9296875 C22.83880586 19.34354679 24.22617639 21.31964985 26.5 24.25 C27.65822266 25.72533203 27.65822266 25.72533203 28.83984375 27.23046875 C29.55269531 28.14441406 30.26554688 29.05835937 31 30 C32.01467302 31.19276805 33.03400213 32.38163207 34.0625 33.5625 C36 36 36 36 36 38 C36.66 38 37.32 38 38 38 C38 38.66 38 39.32 38 40 C38.66 40 39.32 40 40 40 C41.5078125 41.8984375 41.5078125 41.8984375 43.125 44.375 C43.66382813 45.18710938 44.20265625 45.99921875 44.7578125 46.8359375 C46 49 46 49 46 51 C46.66 51 47.32 51 48 51 C49.2890625 52.64453125 49.2890625 52.64453125 50.625 54.8125 C51.07101562 55.52019531 51.51703125 56.22789063 51.9765625 56.95703125 C53 59 53 59 53 62 C53.66 62 54.32 62 55 62 C55.99 64.31 56.98 66.62 58 69 C59.32 68.67 60.64 68.34 62 68 C79 89.51509054 79 89.51509054 79 94 C79.66 94 80.32 94 81 94 C84.90589925 100.91150258 88.43313762 107.91793618 91.703125 115.15234375 C92.75559645 117.46334281 93.84503141 119.7390945 95 122 C95.99 122 96.98 122 98 122 C110.51693033 137.91934988 113.71826139 159.4672806 113 179 C113 179.66 113 180.32 113 181 C114.32 180.67 115.64 180.34 117 180 C118.08221133 195.96261713 109.86083201 211.88003 100 224 C99.34 224.99 98.68 225.98 98 227 C97.34 227 96.68 227 96 227 C96 227.66 96 228.32 96 229 C95.34 229 94.68 229 94 229 C94 229.66 94 230.32 94 231 C92.1015625 232.7265625 92.1015625 232.7265625 89.625 234.625 C88.81289063 235.25664062 88.00078125 235.88828125 87.1640625 236.5390625 C85 238 85 238 83 238 C83.33 238.33 83.66 238.66 84 239 C86.475 238.01 86.475 238.01 89 237 C89 237.99 89 238.98 89 240 C88.34 240 87.68 240 87 240 C87 240.66 87 241.32 87 242 C86.34 242 85.68 242 85 242 C85 242.66 85 243.32 85 244 C84.34 244 83.68 244 83 244 C83 244.66 83 245.32 83 246 C82.34 246 81.68 246 81 246 C81 246.66 81 247.32 81 248 C80.34 248 79.68 248 79 248 C78.73058594 248.59425781 78.46117187 249.18851563 78.18359375 249.80078125 C73.82518107 257.899086 63.26000487 266.34393227 55 270 C55 270.66 55 271.32 55 272 C53.42700195 273.37280273 53.42700195 273.37280273 51.23828125 274.93359375 C50.44873047 275.50013672 49.65917969 276.06667969 48.84570312 276.65039062 C48.00974609 277.24013672 47.17378906 277.82988281 46.3125 278.4375 C45.49587891 279.02337891 44.67925781 279.60925781 43.83789062 280.21289062 C41.57215278 281.82917811 39.29150223 283.42052522 37 285 C36.08605469 285.63035156 35.17210937 286.26070313 34.23046875 286.91015625 C31.62807441 288.18172896 29.85930241 288.08250547 27 288 C26.78138433 282.75360677 26.58485671 277.50699903 26.40795898 272.2590332 C26.3448823 270.47723773 26.27597783 268.69563796 26.20092773 266.91430664 C26.09352781 264.34031241 26.0077384 261.76632166 25.92578125 259.19140625 C25.88842361 258.40665421 25.85106598 257.62190216 25.81257629 256.81336975 C25.58216946 248.16363031 28.02598348 241.5401483 33.5625 234.875 C34.46076582 233.75689631 35.35516706 232.63567915 36.24609375 231.51171875 C36.70226074 230.93728027 37.15842773 230.3628418 37.62841797 229.77099609 C52.93038799 210.01298781 63.44383673 188.50209093 61 163 C59.19457742 152.58496852 53.95010877 143.22650795 49 134 C48.47962158 133.01942627 48.47962158 133.01942627 47.94873047 132.01904297 C43.08432552 122.90537715 37.67103985 114.26960088 31.80957031 105.76220703 C31.31424805 105.03888184 30.81892578 104.31555664 30.30859375 103.5703125 C29.86314209 102.92852051 29.41769043 102.28672852 28.95874023 101.62548828 C28 100 28 100 28 98 C27.34 98 26.68 98 26 98 C26 97.34 26 96.68 26 96 C25.34 96 24.68 96 24 96 C24 95.34 24 94.68 24 94 C23.2265625 93.62875 23.2265625 93.62875 22.4375 93.25 C20 92 20 92 16.75 90 C9.9889767 86.15916336 3.58663537 85.25019942 -4 87 C-8.35160812 88.40994667 -12.49368707 89.86551567 -16.16796875 92.6328125 C-18 94 -18 94 -20 94 C-20.25652344 94.55945313 -20.51304687 95.11890625 -20.77734375 95.6953125 C-22.15848182 98.29873569 -23.790569 100.51958466 -25.5625 102.875 C-33.53166485 113.74598031 -40.21008923 124.80508402 -46 137 C-46.61405701 138.23008111 -47.22996953 139.45923755 -47.84765625 140.6875 C-56.21870823 157.57952009 -59.22983768 172.49293602 -54 191 C-51.97883679 196.86292697 -49.7129059 202.75508916 -46.81640625 208.2421875 C-46 210 -46 210 -46 213 C-45.34 213 -44.68 213 -44 213 C-43.5978125 213.78310547 -43.5978125 213.78310547 -43.1875 214.58203125 C-39.23222539 222.01118191 -34.36025584 228.65013035 -29.22265625 235.30078125 C-28.69542969 235.98527344 -28.16820312 236.66976562 -27.625 237.375 C-26.93277344 238.25285156 -26.93277344 238.25285156 -26.2265625 239.1484375 C-22.66272806 244.52823853 -22.73246096 249.42825599 -22.8046875 255.67578125 C-22.8075174 256.6009404 -22.81034729 257.52609955 -22.81326294 258.47929382 C-22.82442608 261.42382942 -22.84952363 264.36805688 -22.875 267.3125 C-22.88503479 269.31314664 -22.89415977 271.31379806 -22.90234375 273.31445312 C-22.92435278 278.2097535 -22.95885609 283.10482457 -23 288 C-27.35790496 287.54707351 -30.49523973 287.17893577 -33.9453125 284.41015625 C-34.62368164 283.87777344 -35.30205078 283.34539062 -36.00097656 282.796875 C-36.7019043 282.22453125 -37.40283203 281.6521875 -38.125 281.0625 C-39.62230078 279.87618211 -41.11969768 278.68998552 -42.6171875 277.50390625 C-43.35420898 276.9123877 -44.09123047 276.32086914 -44.85058594 275.71142578 C-46.8208585 274.14263765 -48.81079142 272.607854 -50.8203125 271.08984375 C-51.40280762 270.64954834 -51.98530273 270.20925293 -52.58544922 269.75561523 C-53.13475098 269.34126221 -53.68405273 268.92690918 -54.25 268.5 C-58.14964971 265.55000592 -61.59240512 262.50426424 -65 259 C-66.54643736 257.45008515 -68.0948251 255.90211526 -69.64453125 254.35546875 C-74.4296875 249.5703125 -79.21484375 244.78515625 -84 240 C-83.67 239.01 -83.34 238.02 -83 237 C-83.495 236.54625 -83.99 236.0925 -84.5 235.625 C-86 234 -86 234 -86 232 C-86.598125 231.731875 -87.19625 231.46375 -87.8125 231.1875 C-89.99847854 230.00082594 -91.41332594 228.90400887 -93 227 C-93 226.34 -93 225.68 -93 225 C-93.66 225 -94.32 225 -95 225 C-95 224.34 -95 223.68 -95 223 C-95.66 223 -96.32 223 -97 223 C-104.79526751 212.58875308 -112.21038581 198.1602365 -113 185 C-112.71904413 183.32370865 -112.39720601 181.65260893 -112 180 C-110.68 180.66 -109.36 181.32 -108 182 C-108.165 181.05125 -108.33 180.1025 -108.5 179.125 C-111.07524899 160.11360303 -104.40617311 139.90677322 -95.140625 123.3984375 C-94 122 -94 122 -91 121 C-90.505 121.495 -90.505 121.495 -90 122 C-89.61070312 121.04222656 -89.22140625 120.08445312 -88.8203125 119.09765625 C-84.40740056 108.50048064 -79.06409431 98.73671481 -73 89 C-72.37222656 87.98679687 -71.74445313 86.97359375 -71.09765625 85.9296875 C-68.23567533 81.46527716 -68.23567533 81.46527716 -67 80 C-66.34 80 -65.68 80 -65 80 C-64.773125 79.319375 -64.54625 78.63875 -64.3125 77.9375 C-62.69789662 74.32386386 -60.77486812 70.85720842 -58 68 C-57.01 68 -56.02 68 -55 68 C-54.67 68.66 -54.34 69.32 -54 70 C-53.57589844 69.17757812 -53.15179688 68.35515625 -52.71484375 67.5078125 C-49.29376428 60.99648323 -45.73058669 54.88203692 -41.3828125 48.92578125 C-39.95934163 47.05070123 -39.95934163 47.05070123 -39 45 C-38.34 45 -37.68 45 -37 45 C-36.77570313 44.30390625 -36.55140625 43.6078125 -36.3203125 42.890625 C-34.69985145 39.34287004 -32.42410426 36.65217653 -29.875 33.75 C-29.38507568 33.18442383 -28.89515137 32.61884766 -28.39038086 32.03613281 C-27.39925131 30.89407721 -26.40538314 29.75439213 -25.40869141 28.6171875 C-24.13487076 27.15483256 -22.88433886 25.67227105 -21.63671875 24.1875 C-20.95222656 23.383125 -20.26773438 22.57875 -19.5625 21.75 C-18.66724609 20.69039062 -18.66724609 20.69039062 -17.75390625 19.609375 C-15.79253667 17.80963276 -14.52814306 17.61240732 -12 17 C-10.21620585 14.01647106 -10.21620585 14.01647106 -9 11 C-8.34 11 -7.68 11 -7 11 C-6.731875 10.2575 -6.46375 9.515 -6.1875 8.75 C-5.04723249 6.10938051 -3.90619694 4.14447156 -2 2 C-1.34 2 -0.68 2 0 2 C0 1.34 0 0.68 0 0 Z M-81 238 C-80.01 239.485 -80.01 239.485 -79 241 C-78.01 240.67 -77.02 240.34 -76 240 C-78.475 239.01 -78.475 239.01 -81 238 Z " fill="#9DC15C" transform="translate(242,59)"/>
<path d="M0 0 C1.71443219 1.71443219 1.23052967 4.00445241 1.31640625 6.34765625 C1.35830078 7.42724609 1.40019531 8.50683594 1.44335938 9.61914062 C1.48267578 10.75544922 1.52199219 11.89175781 1.5625 13.0625 C1.60568359 14.20267578 1.64886719 15.34285156 1.69335938 16.51757812 C1.79982839 19.34492195 1.90184207 22.17235738 2 25 C2.74548096 24.71705078 3.49096191 24.43410156 4.2590332 24.14257812 C5.24218506 23.77583984 6.22533691 23.40910156 7.23828125 23.03125 C8.69681519 22.48307617 8.69681519 22.48307617 10.18481445 21.92382812 C16.47556195 19.8594635 21.32750949 20.73354406 27.23828125 23.5390625 C30.80894808 26.50010329 31.90821086 30.21230303 32.43237305 34.71044922 C32.4732783 36.07483853 32.4990942 37.43974353 32.51171875 38.8046875 C32.52966995 39.5286673 32.54762115 40.25264709 32.56611633 40.99856567 C32.61991138 43.29065277 32.65401402 45.58253541 32.6875 47.875 C32.72070049 49.43752827 32.75519266 51.00002966 32.79101562 52.5625 C32.87561923 56.37485169 32.94257559 60.187146 33 64 C37.90696232 63.41583782 40.30988363 62.34505819 45 60 C45.33 49.44 45.66 38.88 46 28 C44.02 29.32 42.04 30.64 40 32 C39.01 32 38.02 32 37 32 C36.01 30.02 36.01 30.02 35 28 C38.67521109 23.76498855 43.68480537 22.32702456 49 21 C53.10357004 20.78271566 56.40529078 21.20868807 60.09399414 23.0390625 C62.50290651 25.51740042 62.4706153 27.35461109 62.50305176 30.72605896 C62.49173218 31.48548294 62.4804126 32.24490692 62.46875 33.02734375 C62.47579956 33.81266983 62.48284912 34.59799591 62.4901123 35.40711975 C62.5196332 38.7656432 62.50296734 42.12358919 62.49072266 45.48217773 C62.48834235 47.93508626 62.50925905 50.38705217 62.53125 52.83984375 C62.51993042 53.5972435 62.50861084 54.35464325 62.49694824 55.13499451 C62.5318822 58.78220811 62.69927333 60.62803526 65.02929688 63.51000977 C65.67962891 64.00170654 66.32996094 64.49340332 67 65 C72.40787385 63.90213575 72.40787385 63.90213575 76 60 C76.24097687 57.17562556 76.3729132 54.44122826 76.4140625 51.61328125 C76.43342865 50.79627243 76.4527948 49.97926361 76.4727478 49.13749695 C76.53250352 46.52927066 76.57891258 43.92100014 76.625 41.3125 C76.6631835 39.5436006 76.70223546 37.77471972 76.7421875 36.00585938 C76.83983607 31.67066955 76.91943488 27.33567578 77 23 C82.28 23 87.56 23 93 23 C93.33 36.53 93.66 50.06 94 64 C100.07798129 63.14729799 100.07798129 63.14729799 106 61 C106 42.52 106 24.04 106 5 C103.36 6.32 100.72 7.64 98 9 C97.01 8.01 96.02 7.02 95 6 C96.4595886 2.1519937 98.33899114 0.78793456 102 -1 C107.48125949 -2.67482929 113.80503629 -3.05175344 119 -0.5625 C121 1 121 1 122 2 C122.12350658 3.90160112 122.17793443 5.8077239 122.20532227 7.71313477 C122.22526749 8.9343251 122.24521271 10.15551544 122.26576233 11.41371155 C122.28274791 12.75627513 122.29962667 14.09884007 122.31640625 15.44140625 C122.33696947 16.80761861 122.35796577 18.17382451 122.37937927 19.5400238 C122.43466535 23.14194524 122.48404563 26.74392471 122.53222656 30.34594727 C122.58239403 34.01909572 122.63810485 37.69215955 122.69335938 41.36523438 C122.80102082 48.57675132 122.90244787 55.78833847 123 63 C126.0030353 63.93885044 126.75378863 64.09848455 129.8125 62.875 C133 62 133 62 136.3125 63.5 C140.57942287 65.23569744 142.76239629 65.14574927 147.10546875 63.91015625 C149.25703114 63.07851221 149.25703114 63.07851221 150.625 60.5 C151.35445416 53.69176119 151.09768461 47.70112642 147 42 C147 41.34 147 40.68 147 40 C146.54625 40.495 146.0925 40.99 145.625 41.5 C144 43 144 43 142 43 C141.6596875 43.7734375 141.6596875 43.7734375 141.3125 44.5625 C139.51782382 47.89547005 137.50034985 51.14703671 135 54 C134.34 54 133.68 54 133 54 C133 54.66 133 55.32 133 56 C131.68 55.67 130.36 55.34 129 55 C129 50.13259243 130.85251036 47.52033267 133.375 43.5625 C135.95206355 39.46738496 138.38861767 35.59509577 140 31 C139.67 30.67 139.34 30.34 139 30 C138.63135399 26.96622461 138.60062424 24.03087904 139 21 C141.22540726 18.45667741 143.63367034 17.30602997 147 17 C149.89857312 17.77766596 151.64457587 18.68011828 153.875 20.6875 C155.89207098 24.83370145 154.39760916 28.80717251 153 33 C153.73863281 33.24105469 154.47726562 33.48210937 155.23828125 33.73046875 C158.37432514 35.17207309 159.93367592 36.71864056 162.1875 39.3125 C162.86167969 40.07175781 163.53585937 40.83101563 164.23046875 41.61328125 C168.66773333 47.59820102 168.79404672 53.77515513 168 61 C165.30853906 66.58228935 160.80637793 70.74142561 155 73 C152.30710184 73.21803697 149.75234877 73.32476002 147.0625 73.3125 C146.35931641 73.32861328 145.65613281 73.34472656 144.93164062 73.36132812 C140.34627427 73.36562556 137.76599712 72.52409076 134 70 C130.09614534 70.23423128 128.28000029 70.81333314 125 73 C119.57290051 73.66485834 114.63160269 73.97896162 109.875 71.125 C109.25625 70.42375 108.6375 69.7225 108 69 C107.34 68.34 106.68 67.68 106 67 C105.41734375 67.433125 104.8346875 67.86625 104.234375 68.3125 C98.36279132 72.30074552 93.84728025 73.88286001 86.71875 73.54296875 C82.59744369 72.71989177 80.78013271 71.08903634 78 68 C76.4840625 69.2375 76.4840625 69.2375 74.9375 70.5 C68.90848659 74.3032486 61.87368778 73.92367585 55 73 C51.5627159 71.52078257 50.33727589 70.69061254 48.6875 67.3125 C48.460625 66.549375 48.23375 65.78625 48 65 C47.20078125 65.5775 46.4015625 66.155 45.578125 66.75 C39.00236682 71.28142355 33.82084661 74.20559685 25.5390625 73.59375 C21.75898918 72.70979439 20.1308687 71.19630305 18 68 C15.92410803 63.8003823 15.69727273 60.16924262 15.5859375 55.51171875 C15.56657135 54.80852005 15.5472052 54.10532135 15.5272522 53.3808136 C15.46779817 51.14982981 15.42120951 48.91879346 15.375 46.6875 C15.33678863 45.16859814 15.29773508 43.64971722 15.2578125 42.13085938 C15.16212584 38.42076533 15.07796928 34.71051349 15 31 C10.31430711 30.0899973 10.31430711 30.0899973 5.6875 30.6875 C3.52918623 32.36618849 2.97590531 33.41863985 2 36 C1.76381298 38.78433032 1.62792152 41.4785743 1.5859375 44.265625 C1.56657135 45.05902283 1.5472052 45.85242065 1.5272522 46.66986084 C1.46761639 49.19646557 1.42113557 51.72311625 1.375 54.25 C1.33680545 55.96616537 1.29775285 57.68231187 1.2578125 59.3984375 C1.16192814 63.59880456 1.07783833 67.79926134 1 72 C-3.95 72 -8.9 72 -14 72 C-14.33 49.89 -14.66 27.78 -15 5 C-16.65 5.66 -18.3 6.32 -20 7 C-20.09087891 7.94359375 -20.09087891 7.94359375 -20.18359375 8.90625 C-21.73288815 24.73288815 -21.73288815 24.73288815 -23 26 C-24.66617115 26.04063832 -26.33388095 26.042721 -28 26 C-28.15855469 25.09636719 -28.31710938 24.19273437 -28.48046875 23.26171875 C-28.83044922 21.49248047 -28.83044922 21.49248047 -29.1875 19.6875 C-29.40792969 18.51574219 -29.62835938 17.34398437 -29.85546875 16.13671875 C-30.73567158 12.88656706 -30.73567158 12.88656706 -33.30078125 11.14453125 C-36.30325347 9.7640723 -36.30325347 9.7640723 -41 9 C-41 27.81 -41 46.62 -41 66 C-38.03 66 -35.06 66 -32 66 C-32 67.98 -32 69.96 -32 72 C-43.55 72 -55.1 72 -67 72 C-67 70.02 -67 68.04 -67 66 C-64.03 66 -61.06 66 -58 66 C-58 47.19 -58 28.38 -58 9 C-60.97 9.66 -63.94 10.32 -67 11 C-67.99 15.62 -68.98 20.24 -70 25 C-71.65 25.33 -73.3 25.66 -75 26 C-77.2218672 22.34376283 -77.6725611 18.54241246 -78.1875 14.375 C-78.28224609 13.694375 -78.37699219 13.01375 -78.47460938 12.3125 C-79.12891851 7.25783703 -79.12891851 7.25783703 -78 5 C-75.05825544 4.01941848 -73.13899436 3.87025984 -70.07299805 3.8581543 C-69.07153244 3.85111984 -68.07006683 3.84408539 -67.03825378 3.83683777 C-65.95699722 3.83267349 -64.87574066 3.82850922 -63.76171875 3.82421875 C-61.47460017 3.80102064 -59.18749076 3.77690331 -56.90039062 3.75195312 C-53.29266215 3.71683603 -49.6852712 3.68749171 -46.07739258 3.67407227 C-42.59675185 3.65859005 -39.1170984 3.61837712 -35.63671875 3.57421875 C-34.02394295 3.57708138 -34.02394295 3.57708138 -32.37858582 3.58000183 C-26.21305519 3.47942497 -22.77127963 2.9629959 -18 -1 C-12.1338508 -2.85246817 -5.50290044 -2.8348275 0 0 Z " fill="#3E8753" transform="translate(181,368)"/>
<path d="M0 0 C1.65322266 0.01740234 1.65322266 0.01740234 3.33984375 0.03515625 C4.99693359 0.04869141 4.99693359 0.04869141 6.6875 0.0625 C7.54214844 0.07410156 8.39679688 0.08570313 9.27734375 0.09765625 C10.65450166 5.3308563 11.42262792 10.25416339 11.71484375 15.66015625 C12.15947273 23.76228431 13.18085772 31.75725442 14.26147461 39.79711914 C14.89490673 44.59780601 15.46826861 49.24152404 15.27734375 54.09765625 C16.92734375 54.09765625 18.57734375 54.09765625 20.27734375 54.09765625 C20.05014648 52.16901733 20.05014648 52.16901733 19.81835938 50.20141602 C19.25405371 45.39928264 18.69658872 40.59637501 18.14111328 35.79321289 C17.90044614 33.72040659 17.65796146 31.64781044 17.41357422 29.57543945 C17.06121387 26.58469109 16.71554747 23.59323056 16.37109375 20.6015625 C16.26172485 19.68556778 16.15235596 18.76957306 16.03967285 17.82582092 C15.40095276 12.20942148 15.17680259 6.75058278 15.27734375 1.09765625 C19.1333265 1.27700429 20.86084087 1.69474237 23.671875 4.4140625 C27.30131082 9.02178475 29.18559051 14.48540747 31.27734375 19.91015625 C31.71159668 21.02874023 32.14584961 22.14732422 32.59326172 23.29980469 C33.84205741 26.55838826 35.06465839 29.82548765 36.27734375 33.09765625 C36.58833008 33.91862793 36.89931641 34.73959961 37.21972656 35.58544922 C42.66444493 50.24706508 44.42330897 65.24088614 37.83789062 79.80273438 C35.92648812 83.69055308 33.91132875 87.50836884 31.81738281 91.30078125 C30.30666 94.04441483 28.85756298 96.81213539 27.42578125 99.59765625 C21.08159738 111.90340258 21.08159738 111.90340258 18.73661804 115.38551331 C17.13578482 118.36075145 16.88569465 120.0912126 16.8449707 123.4387207 C16.82517654 124.47942215 16.80538239 125.5201236 16.7849884 126.59236145 C16.77540352 128.25980659 16.77540352 128.25980659 16.765625 129.9609375 C16.7476738 131.1080571 16.7297226 132.2551767 16.71122742 133.4370575 C16.65711975 137.09471989 16.62322624 140.75225172 16.58984375 144.41015625 C16.55667119 146.89259629 16.5221816 149.37501911 16.48632812 151.85742188 C16.39891784 157.93751887 16.33885 164.01702128 16.27734375 170.09765625 C7.69734375 170.09765625 -0.88265625 170.09765625 -9.72265625 170.09765625 C-9.72265625 152.27765625 -9.72265625 134.45765625 -9.72265625 116.09765625 C-10.38265625 116.09765625 -11.04265625 116.09765625 -11.72265625 116.09765625 C-17.3311883 106.17098097 -22.82176493 96.20855977 -27.72265625 85.91015625 C-28.26394165 84.78226685 -28.26394165 84.78226685 -28.81616211 83.6315918 C-31.18990778 78.56441731 -33.04638036 73.43277796 -34.72265625 68.09765625 C-35.05265625 67.10765625 -35.38265625 66.11765625 -35.72265625 65.09765625 C-36.52917142 45.05338205 -27.33845935 19.2793453 -15.72265625 3.09765625 C-13.04921111 1.31535949 -11.98495266 1.09765625 -8.72265625 1.09765625 C-8.21892471 10.64989882 -9.3236545 19.80811469 -10.58081055 29.26049805 C-11.44602747 35.77812319 -12.13956036 42.23875013 -12.51171875 48.8046875 C-12.72265625 51.09765625 -12.72265625 51.09765625 -13.72265625 54.09765625 C-11.74265625 54.09765625 -9.76265625 54.09765625 -7.72265625 54.09765625 C-7.74585938 53.45183594 -7.7690625 52.80601562 -7.79296875 52.140625 C-7.94677711 44.1096313 -7.19955208 36.32525513 -6.296875 28.36328125 C-5.53636828 21.60264769 -4.9753501 14.82367027 -4.42041016 8.04345703 C-4.3435498 7.15126465 -4.26668945 6.25907227 -4.1875 5.33984375 C-4.12167725 4.54433105 -4.05585449 3.74881836 -3.98803711 2.92919922 C-3.55531592 -0.05725377 -3.07887581 0.11043314 0 0 Z " fill="#3C8751" transform="translate(240.72265625,176.90234375)"/>
<path d="M0 0 C18.15 0 36.3 0 55 0 C55 0.33 55 0.66 55 1 C46.585 1.495 46.585 1.495 38 2 C38.495 2.99 38.495 2.99 39 4 C38.34 4 37.68 4 37 4 C37 22.81 37 41.62 37 61 C39.97 61 42.94 61 46 61 C46 62.98 46 64.96 46 67 C34.45 67 22.9 67 11 67 C11 65.02 11 63.04 11 61 C13.97 61 16.94 61 20 61 C20 42.19 20 23.38 20 4 C17.03 4.66 14.06 5.32 11 6 C10.01 10.62 9.02 15.24 8 20 C6.35 20.33 4.7 20.66 3 21 C0.7781328 17.34376283 0.3274389 13.54241246 -0.1875 9.375 C-0.28224609 8.694375 -0.37699219 8.01375 -0.47460938 7.3125 C-1.12891851 2.25783703 -1.12891851 2.25783703 0 0 Z " fill="#3A844F" transform="translate(103,373)"/>
<path d="M0 0 C1.9375 1.6875 1.9375 1.6875 3 4 C2.748267 7.58719525 2.1355927 10.59322191 1 14 C1.73863281 14.24105469 2.47726562 14.48210937 3.23828125 14.73046875 C6.37432514 16.17207309 7.93367592 17.71864056 10.1875 20.3125 C10.86167969 21.07175781 11.53585937 21.83101563 12.23046875 22.61328125 C16.66773333 28.59820102 16.79404672 34.77515513 16 42 C13.30853906 47.58228935 8.80637793 51.74142561 3 54 C0.30710184 54.21803697 -2.24765123 54.32476002 -4.9375 54.3125 C-5.64068359 54.32861328 -6.34386719 54.34472656 -7.06835938 54.36132812 C-11.67154812 54.36564227 -14.20217912 53.48319058 -18 51 C-21.73093378 51.22247835 -21.73093378 51.22247835 -25 52 C-25.33 50.68 -25.66 49.36 -26 48 C-25.34 48 -24.68 48 -24 48 C-24.495 46.515 -24.495 46.515 -25 45 C-22.4375 43.8125 -22.4375 43.8125 -19 43 C-17.906875 43.495 -16.81375 43.99 -15.6875 44.5 C-11.42057713 46.23569744 -9.23760371 46.14574927 -4.89453125 44.91015625 C-2.74296886 44.07851221 -2.74296886 44.07851221 -1.375 41.5 C-0.64554584 34.69176119 -0.90231539 28.70112642 -5 23 C-5 22.34 -5 21.68 -5 21 C-5.45375 21.495 -5.9075 21.99 -6.375 22.5 C-8 24 -8 24 -10 24 C-10.226875 24.515625 -10.45375 25.03125 -10.6875 25.5625 C-12.48217618 28.89547005 -14.49965015 32.14703671 -17 35 C-17.66 35 -18.32 35 -19 35 C-19 35.66 -19 36.32 -19 37 C-20.32 36.67 -21.64 36.34 -23 36 C-23 31.13259243 -21.14748964 28.52033267 -18.625 24.5625 C-16.04793645 20.46738496 -13.61138233 16.59509577 -12 12 C-12.33 11.67 -12.66 11.34 -13 11 C-13.36860081 7.96659661 -13.40472839 5.02999365 -13 2 C-9.00719076 -2.40585848 -5.20592759 -2.27759332 0 0 Z " fill="#438A58" transform="translate(333,387)"/>
<path d="M0 0 C3.24203814 2.93327261 3.18756211 4.10428229 3.625 8.375 C3.70490728 10.98667917 3.7421568 13.5694293 3.72265625 16.1796875 C3.7212413 16.9036673 3.71982635 17.62764709 3.71836853 18.37356567 C3.71281075 20.66575407 3.70026633 22.95784157 3.6875 25.25 C3.68247953 26.81249858 3.67791759 28.37499871 3.67382812 29.9375 C3.66285519 33.75003835 3.6456201 37.56250212 3.625 41.375 C7.09441546 40.91677532 10.29895049 40.48368317 13.625 39.375 C15.625 41.375 15.625 41.375 15.625 44.375 C11.18239081 49.09311984 6.25433638 50.83026022 -0.125 51.0625 C-4.32507326 50.8517612 -6.00929116 50.61880589 -9.5625 48.25 C-13.02658236 42.75524867 -13.66283158 37.73971177 -13.5703125 31.3515625 C-13.5674826 30.60538666 -13.56465271 29.85921082 -13.56173706 29.09042358 C-13.55061687 26.72678012 -13.52552821 24.36352732 -13.5 22 C-13.48995962 20.38932842 -13.48083562 18.77865085 -13.47265625 17.16796875 C-13.4507044 13.23683056 -13.41623185 9.30598133 -13.375 5.375 C-14.15230469 6.04015625 -14.92960937 6.7053125 -15.73046875 7.390625 C-18.375 9.375 -18.375 9.375 -20.6875 9.125 C-21.244375 8.8775 -21.80125 8.63 -22.375 8.375 C-22.705 7.055 -23.035 5.735 -23.375 4.375 C-16.35865673 -0.75890971 -8.36309396 -4.02667487 0 0 Z " fill="#3C8450" transform="translate(369.375,390.625)"/>
<path d="M0 0 C2.125 0.375 2.125 0.375 4 1 C3.67 1.99 3.34 2.98 3 4 C3.66 4.33 4.32 4.66 5 5 C4.01 5.33 3.02 5.66 2 6 C1.90912109 6.94359375 1.90912109 6.94359375 1.81640625 7.90625 C0.26711185 23.73288815 0.26711185 23.73288815 -1 25 C-2.66617115 25.04063832 -4.33388095 25.042721 -6 25 C-6.11214844 24.11957031 -6.22429687 23.23914063 -6.33984375 22.33203125 C-7.29210722 15.48882033 -7.29210722 15.48882033 -11.16796875 10.09375 C-13.5821613 8.78549685 -13.5821613 8.78549685 -16.0390625 7.83203125 C-18 7 -18 7 -19 5 C-30.22 4.67 -41.44 4.34 -53 4 C-53 3.67 -53 3.34 -53 3 C-52.36550934 2.99191315 -51.73101868 2.98382629 -51.07730103 2.97549438 C-44.49142936 2.88963817 -37.90586529 2.79014361 -31.3203125 2.68261719 C-28.86040398 2.64426238 -26.40043813 2.60942116 -23.94042969 2.578125 C-20.41059837 2.53261549 -16.88116405 2.47459802 -13.3515625 2.4140625 C-12.24632233 2.40251129 -11.14108215 2.39096008 -10.00234985 2.37905884 C-8.98144257 2.35918915 -7.96053528 2.33931946 -6.90869141 2.31884766 C-6.00712311 2.30552399 -5.10555481 2.29220032 -4.17666626 2.2784729 C-1.79101999 2.19879158 -1.79101999 2.19879158 0 0 Z " fill="#4E9062" transform="translate(159,369)"/>
<path d="M0 0 C1.9375 1.6875 1.9375 1.6875 3 4 C2.75265229 7.40103097 2.14593614 10.4649008 1.25 13.75 C0.72296529 16.08757952 0.72296529 16.08757952 2.4375 17.8125 C2.953125 18.204375 3.46875 18.59625 4 19 C3.01 19.33 2.02 19.66 1 20 C0.34 19.01 -0.32 18.02 -1 17 C-3.43693311 16.63583953 -3.43693311 16.63583953 -6.125 16.8125 C-7.03507812 16.83957031 -7.94515625 16.86664063 -8.8828125 16.89453125 C-9.58148438 16.92933594 -10.28015625 16.96414063 -11 17 C-10.67 15.02 -10.34 13.04 -10 11 C-10.99 11 -11.98 11 -13 11 C-13.22891965 7.96681462 -13.34943364 5.02663287 -13 2 C-9.00719076 -2.40585848 -5.20592759 -2.27759332 0 0 Z " fill="#39854F" transform="translate(333,387)"/>
<path d="M0 0 C1.26972656 0.00257813 2.53945313 0.00515625 3.84765625 0.0078125 C5.11480469 0.00523437 6.38195312 0.00265625 7.6875 0 C10.91015625 0.1328125 10.91015625 0.1328125 12.91015625 1.1328125 C12.96400146 3.42422536 13.00287712 5.71599438 13.03515625 8.0078125 C13.05835938 9.28398437 13.0815625 10.56015625 13.10546875 11.875 C12.91015625 15.1328125 12.91015625 15.1328125 10.91015625 17.1328125 C7.94140625 17.3984375 7.94140625 17.3984375 4.41015625 17.3828125 C3.24484375 17.38796875 2.07953125 17.393125 0.87890625 17.3984375 C-2.08984375 17.1328125 -2.08984375 17.1328125 -4.08984375 15.1328125 C-4.3203125 11.91015625 -4.3203125 11.91015625 -4.27734375 8.0703125 C-4.27089844 6.80058594 -4.26445312 5.53085937 -4.2578125 4.22265625 C-4.03769699 0.17355461 -4.03769699 0.17355461 0 0 Z M-1.08984375 3.1328125 C-2.31436155 4.13750873 -2.31436155 4.13750873 -2.22265625 6.1640625 C-2.22007812 6.97875 -2.2175 7.7934375 -2.21484375 8.6328125 C-2.21742188 9.4475 -2.22 10.2621875 -2.22265625 11.1015625 C-2.31436155 13.12811627 -2.31436155 13.12811627 -1.08984375 14.1328125 C2.57931395 14.27591537 6.23731066 14.17502912 9.91015625 14.1328125 C9.91015625 10.5028125 9.91015625 6.8728125 9.91015625 3.1328125 C8.92015625 3.4628125 7.93015625 3.7928125 6.91015625 4.1328125 C7.24015625 4.4628125 7.57015625 4.7928125 7.91015625 5.1328125 C8.27776356 7.46099214 8.61257206 9.794651 8.91015625 12.1328125 C6.27015625 12.1328125 3.63015625 12.1328125 0.91015625 12.1328125 C0.10048187 9.21798472 -0.30830368 7.67168033 0.84765625 4.8203125 C1.19828125 4.2634375 1.54890625 3.7065625 1.91015625 3.1328125 C0.92015625 3.1328125 -0.06984375 3.1328125 -1.08984375 3.1328125 Z " fill="#84B26F" transform="translate(385.08984375,365.8671875)"/>
<path d="M0 0 C2.05938216 1.57885966 2.84571211 2.69142423 4 5 C4.27561452 8.16956698 4.27003767 10.37553788 3 13.3125 C-0.02524508 15.86505054 -3.11233221 16.07853874 -7 16 C-10.43805898 14.91429716 -10.92924808 14.10612788 -13 11 C-13.67092652 4.84984026 -13.67092652 4.84984026 -11.125 1.625 C-7.11862281 -1.43870021 -4.92522917 -1.03689035 0 0 Z " fill="#4A8D5B" transform="translate(369,368)"/>
<path d="M0 0 C0.33 0 0.66 0 1 0 C1 16.5 1 33 1 50 C3.82411765 50.94137255 5.52918032 51.11725382 8.44921875 51.09765625 C9.29677734 51.09443359 10.14433594 51.09121094 11.01757812 51.08789062 C11.89865234 51.07951172 12.77972656 51.07113281 13.6875 51.0625 C14.58017578 51.05798828 15.47285156 51.05347656 16.39257812 51.04882812 C18.59511987 51.03704983 20.79752599 51.02060164 23 51 C22.98976807 50.31397705 22.97953613 49.6279541 22.96899414 48.92114258 C22.82970902 37.93705356 23.47585385 26.96803705 24 16 C24.33 16 24.66 16 25 16 C25 28.21 25 40.42 25 53 C16.42 53 7.84 53 -1 53 C-1.02290249 45.61267325 -1.04283157 38.22546868 -1.05493164 30.83813477 C-1.05997363 28.32283105 -1.06680703 25.80753028 -1.07543945 23.29223633 C-1.08751094 19.68570225 -1.09322949 16.07920677 -1.09765625 12.47265625 C-1.10281754 11.34038101 -1.10797882 10.20810577 -1.11329651 9.04151917 C-1.11337204 8.00051559 -1.11344757 6.95951202 -1.11352539 5.88696289 C-1.115746 4.96540909 -1.11796661 4.04385529 -1.12025452 3.09437561 C-1 1 -1 1 0 0 Z " fill="#759D82" transform="translate(232,294)"/>
<path d="M0 0 C2 3 2 3 2.625 5.375 C1.90397843 8.40329059 1.35500912 8.96134876 -1.0625 10.8125 C-7.11988416 14.25370211 -14.26482808 13.9050623 -21 13 C-23.89453125 11.65625 -23.89453125 11.65625 -26 10 C-26.33 9.01 -26.66 8.02 -27 7 C-26.01 6.67 -25.02 6.34 -24 6 C-23.67 6.99 -23.34 7.98 -23 9 C-15.79485927 7.81216769 -8.5985582 6.21908829 -2 3 C-1.34 2.01 -0.68 1.02 0 0 Z " fill="#528F64" transform="translate(257,428)"/>
<path d="M0 0 C0.33 1.32 0.66 2.64 1 4 C1.66 4.33 2.32 4.66 3 5 C-4.43730921 10.37405569 -10.01958698 13.96146876 -19.5390625 13.4765625 C-22 13 -22 13 -25 11 C-25 10.34 -25 9.68 -25 9 C-20.25 7.875 -20.25 7.875 -18 9 C-18 8.34 -18 7.68 -18 7 C-18.66 7 -19.32 7 -20 7 C-20 6.01 -20 5.02 -20 4 C-19.34 4 -18.68 4 -18 4 C-18 4.66 -18 5.32 -18 6 C-14.535 5.505 -14.535 5.505 -11 5 C-10.67 5.66 -10.34 6.32 -10 7 C-9.01 7 -8.02 7 -7 7 C-7.33 6.01 -7.66 5.02 -8 4 C-5.36 2.68 -2.72 1.36 0 0 Z " fill="#519062" transform="translate(226,428)"/>
<path d="M0 0 C3.70179935 1.38893959 6.62658225 1.9325706 10.625 1.625 C11.285 3.605 11.945 5.585 12.625 7.625 C14.935 7.955 17.245 8.285 19.625 8.625 C19.625 8.955 19.625 9.285 19.625 9.625 C17.06185501 9.70632187 14.50131582 9.76564175 11.9375 9.8125 C10.8556543 9.85020508 10.8556543 9.85020508 9.75195312 9.88867188 C5.04451155 9.95315738 2.50151613 9.19114448 -1.375 6.625 C-5.10593378 6.84747835 -5.10593378 6.84747835 -8.375 7.625 C-8.705 6.305 -9.035 4.985 -9.375 3.625 C-8.715 3.625 -8.055 3.625 -7.375 3.625 C-7.705 2.635 -8.035 1.645 -8.375 0.625 C-5.04567159 -1.46901199 -3.6047027 -1.47982532 0 0 Z " fill="#58966B" transform="translate(316.375,431.375)"/>
<path d="M0 0 C0.66 0 1.32 0 2 0 C2.09765625 6.15234375 2.09765625 6.15234375 2 8 C1.67 8.33 1.34 8.66 1 9 C1.99 9.99 2.98 10.98 4 12 C3.01 12.495 3.01 12.495 2 13 C1.731875 13.53625 1.46375 14.0725 1.1875 14.625 C0.09013566 16.81972867 -1.10828338 18.73384748 -2.5 20.75 C-2.9228125 21.36359375 -3.345625 21.9771875 -3.78125 22.609375 C-4.1834375 23.06828125 -4.585625 23.5271875 -5 24 C-5.66 24 -6.32 24 -7 24 C-7 24.66 -7 25.32 -7 26 C-8.32 25.67 -9.64 25.34 -11 25 C-11 20.14093217 -9.15413105 17.56609992 -6.625 13.625 C-3.78453084 9.16901401 -1.44906613 5.14338858 0 0 Z " fill="#58946A" transform="translate(321,398)"/>
<path d="M0 0 C0.02717692 2.06242617 0.0464758 4.12495703 0.0625 6.1875 C0.07410156 7.33605469 0.08570313 8.48460937 0.09765625 9.66796875 C0.01192832 12.59300586 -0.32150977 15.16316291 -1 18 C-1.66 16.68 -2.32 15.36 -3 14 C-3.99 14.495 -3.99 14.495 -5 15 C-5 14.34 -5 13.68 -5 13 C-7.475 14.485 -7.475 14.485 -10 16 C-10 15.34 -10 14.68 -10 14 C-10.99 14 -11.98 14 -13 14 C-11.50279335 8.75977674 -9.62769048 3.75179366 -4.9375 0.625 C-3 0 -3 0 0 0 Z " fill="#498F5E" transform="translate(232,178)"/>
<path d="M0 0 C4.22552008 0.19653582 5.70221683 0.70221683 8.75 3.75 C10.66417145 6.51491431 11.97202601 8.82262586 13 12 C11.68 12.33 10.36 12.66 9 13 C8.67 14.32 8.34 15.64 8 17 C7.34 17 6.68 17 6 17 C6 16.34 6 15.68 6 15 C5.34 15 4.68 15 4 15 C4.33 13.68 4.66 12.36 5 11 C4.01 10.67 3.02 10.34 2 10 C2 12.64 2 15.28 2 18 C1.67 18 1.34 18 1 18 C0.22959149 11.93303301 -0.09706112 6.11485027 0 0 Z " fill="#37864A" transform="translate(256,178)"/>
<path d="M0 0 C3.63 0 7.26 0 11 0 C10.01 4.29 9.02 8.58 8 13 C6.35 13.33 4.7 13.66 3 14 C0.39260251 9.46355234 0.40698957 5.15520127 0 0 Z " fill="#488E59" transform="translate(103,380)"/>
<path d="M0 0 C0 0.99 0 1.98 0 3 C1.32 3.33 2.64 3.66 4 4 C-2.32075213 8.6986122 -7.38929408 10.92193838 -15.34765625 10.54296875 C-19.32418623 9.72892211 -20.70716532 8.27547812 -23 5 C-20.38848668 5.43525222 -18.27441704 5.85031798 -15.9375 7.125 C-13.5380335 8.20863003 -12.42971792 7.8677564 -10 7 C-9.67 5.02 -9.34 3.04 -9 1 C-2.25 0 -2.25 0 0 0 Z " fill="#448B5B" transform="translate(283,431)"/>
<path d="M0 0 C0 0.99 0 1.98 0 3 C-2.64 3.33 -5.28 3.66 -8 4 C-7.67 4.99 -7.34 5.98 -7 7 C-14.42857143 10.28571429 -14.42857143 10.28571429 -18 11 C-18.66 9.68 -19.32 8.36 -20 7 C-15.41897033 1.65291186 -6.85071121 -0.74061743 0 0 Z " fill="#388352" transform="translate(236,389)"/>
<path d="M0 0 C2.02419716 6.37840543 -0.37712623 12.81692011 -3.0625 18.6875 C-5.85948462 25.1860702 -5.81398689 32.02450856 -6 39 C-6.66 39 -7.32 39 -8 39 C-8.87049151 25.29781889 -4.90965289 12.59432697 0 0 Z " fill="#AFC57E" transform="translate(141,195)"/>
<path d="M0 0 C0.33 0 0.66 0 1 0 C0.63883848 6.38052027 0.63883848 6.38052027 -2.0625 9 C-6.25704381 10.42792981 -8.68321975 10.06150334 -13 9 C-14.5 6.9375 -14.5 6.9375 -15 5 C-12.69 5.33 -10.38 5.66 -8 6 C-7.67 5.01 -7.34 4.02 -7 3 C-4.69 3 -2.38 3 0 3 C0 2.01 0 1.02 0 0 Z " fill="#519063" transform="translate(372,374)"/>
<path d="M0 0 C2.0625 0.4375 2.0625 0.4375 4 1 C4 3.31 4 5.62 4 8 C1.21136993 9.39431504 -0.92078868 9.25660094 -4 9 C-6 6 -6 6 -6 3 C-5.195625 2.690625 -4.39125 2.38125 -3.5625 2.0625 C-1.10919595 1.23664655 -1.10919595 1.23664655 0 0 Z " fill="#68AE2C" transform="translate(390,370)"/>
<path d="M0 0 C0 0.99 0 1.98 0 3 C-0.66 3 -1.32 3 -2 3 C-2 3.66 -2 4.32 -2 5 C-2.66 5 -3.32 5 -4 5 C-4 5.66 -4 6.32 -4 7 C-4.66 7 -5.32 7 -6 7 C-6 7.66 -6 8.32 -6 9 C-6.66 9 -7.32 9 -8 9 C-8 9.66 -8 10.32 -8 11 C-8.66 11 -9.32 11 -10 11 C-10.268125 11.61875 -10.53625 12.2375 -10.8125 12.875 C-12 15 -12 15 -15 17 C-14.67 15.02 -14.34 13.04 -14 11 C-13.01 11 -12.02 11 -11 11 C-11.33 10.01 -11.66 9.02 -12 8 C-11.34 7.34 -10.68 6.68 -10 6 C-9.34 5.01 -8.68 4.02 -8 3 C-7.01 3.33 -6.02 3.66 -5 4 C-5 3.34 -5 2.68 -5 2 C-2 0 -2 0 0 0 Z " fill="#AEC57D" transform="translate(331,296)"/>
<path d="M0 0 C0.33 0 0.66 0 1 0 C0.85904936 1.6254308 0.71207913 3.25034051 0.5625 4.875 C0.48128906 5.77992188 0.40007812 6.68484375 0.31640625 7.6171875 C0 10 0 10 -1 12 C-2.65391846 12.39171753 -4.32345271 12.72057545 -6 13 C-6.99 13.33 -7.98 13.66 -9 14 C-9 15.98 -9 17.96 -9 20 C-10.98 20.99 -10.98 20.99 -13 22 C-9.87822878 11.83763838 -9.87822878 11.83763838 -7 8 C-6.01 7.67 -5.02 7.34 -4 7 C-3.67 7.33 -3.34 7.66 -3 8 C-2.01 5.36 -1.02 2.72 0 0 Z " fill="#B7CD89" transform="translate(155,173)"/>
<path d="M0 0 C0.66 0 1.32 0 2 0 C1.85892253 1.45880109 1.71197585 2.91703551 1.5625 4.375 C1.48128906 5.18710937 1.40007812 5.99921875 1.31640625 6.8359375 C1 9 1 9 0 11 C-2.31 10.67 -4.62 10.34 -7 10 C-7 8.02 -7 6.04 -7 4 C-5.68 3.67 -4.36 3.34 -3 3 C-2.67 3.66 -2.34 4.32 -2 5 C-2 4.01 -2 3.02 -2 2 C-1.34 2 -0.68 2 0 2 C0 1.34 0 0.68 0 0 Z " fill="#38864F" transform="translate(364,369)"/>
<path d="M0 0 C0.66 0 1.32 0 2 0 C2 9.9 2 19.8 2 30 C1.67 29.34 1.34 28.68 1 28 C0.34 27.67 -0.32 27.34 -1 27 C-0.67 18.09 -0.34 9.18 0 0 Z " fill="#3C7B53" transform="translate(211,402)"/>
<path d="M0 0 C2.14762184 3.22143276 2.561068 4.2595467 2 8 C0 9.8125 0 9.8125 -2 11 C-2.66 10.67 -3.32 10.34 -4 10 C-3.67 9.34 -3.34 8.68 -3 8 C-4.65 8 -6.3 8 -8 8 C-8.33 8.99 -8.66 9.98 -9 11 C-9.99 10.67 -10.98 10.34 -12 10 C-11.5 8.1875 -11.5 8.1875 -10 6 C-7.989836 5.09712973 -5.98734319 4.43375414 -3.875 3.80859375 C-1.63697497 3.04519963 -1.63697497 3.04519963 0 0 Z " fill="#59936B" transform="translate(257,428)"/>
<path d="M0 0 C0.680625 0.474375 1.36125 0.94875 2.0625 1.4375 C5.41841956 3.2225636 8.24161481 3.63153086 12 4 C11 6 11 6 9 7 C9.515625 7.598125 10.03125 8.19625 10.5625 8.8125 C11.036875 9.534375 11.51125 10.25625 12 11 C11.67 11.99 11.34 12.98 11 14 C9.15730989 12.23807715 7.32609243 10.46648194 5.5 8.6875 C4.97535156 8.18798828 4.45070312 7.68847656 3.91015625 7.17382812 C2.5489154 5.83910496 1.26860484 4.4230616 0 3 C0 2.01 0 1.02 0 0 Z " fill="#BBCE94" transform="translate(158,296)"/>
<path d="M0 0 C0.76441406 0.27328125 1.52882813 0.5465625 2.31640625 0.828125 C4.4375 1.75 4.4375 1.75 7.4375 3.75 C2.97840909 4.98863636 2.97840909 4.98863636 0.3125 3.8125 C-0.30625 3.461875 -0.925 3.11125 -1.5625 2.75 C-2.5525 2.75 -3.5425 2.75 -4.5625 2.75 C-4.5625 3.41 -4.5625 4.07 -4.5625 4.75 C-3.9025 5.08 -3.2425 5.41 -2.5625 5.75 C-4.5425 6.41 -6.5225 7.07 -8.5625 7.75 C-8.8925 6.43 -9.2225 5.11 -9.5625 3.75 C-8.9025 3.75 -8.2425 3.75 -7.5625 3.75 C-7.8925 2.76 -8.2225 1.77 -8.5625 0.75 C-5.22772836 -1.34657625 -3.6618815 -1.36313694 0 0 Z " fill="#6CA17C" transform="translate(316.5625,431.25)"/>
<path d="M0 0 C1.98 0 3.96 0 6 0 C6 1.65 6 3.3 6 5 C-2.04212755 5.16677223 -9.98603754 4.6466598 -18 4 C-18 3.67 -18 3.34 -18 3 C-9.585 2.505 -9.585 2.505 -1 2 C-0.67 1.34 -0.34 0.68 0 0 Z " fill="#307649" transform="translate(143,435)"/>
<path d="M0 0 C0.08159574 4.16138263 -0.01751476 7.9472484 -1 12 C-1.66 11.34 -2.32 10.68 -3 10 C-3.66 10.66 -4.32 11.32 -5 12 C-5 9.37886292 -4.68707555 7.49064888 -4 5 C-4.99 5 -5.98 5 -7 5 C-6.6875 3.0625 -6.6875 3.0625 -6 1 C-3 0 -3 0 0 0 Z " fill="#367E4C" transform="translate(232,178)"/>
<path d="M0 0 C-0.45294454 4.1519916 -0.99446892 8.08769101 -2.0625 12.125 C-3.53537837 18.33290957 -3.1622784 24.66212707 -3 31 C-3.66 31 -4.32 31 -5 31 C-5.2349655 20.94869789 -5.3973666 10.84104192 -3 1 C-1 0 -1 0 0 0 Z " fill="#B5C987" transform="translate(188,209)"/>
<path d="M0 0 C3.73884332 2.65654657 5.64978174 4.58110387 7 9 C7.66 9 8.32 9 9 9 C9 9.66 9 10.32 9 11 C9.66 11 10.32 11 11 11 C11.66 12.65 12.32 14.3 13 16 C11.68 15.67 10.36 15.34 9 15 C9 14.01 9 13.02 9 12 C8.38125 11.9175 7.7625 11.835 7.125 11.75 C5 11 5 11 3.875 9 C3.58625 8.34 3.2975 7.68 3 7 C2.34 6.67 1.68 6.34 1 6 C0.375 2.9375 0.375 2.9375 0 0 Z " fill="#B0C881" transform="translate(271,88)"/>
<path d="M0 0 C2 3 2 3 2 5 C2.66 5.33 3.32 5.66 4 6 C3.01 7.485 3.01 7.485 2 9 C1.34 9 0.68 9 0 9 C0 9.66 0 10.32 0 11 C-1.32 10.67 -2.64 10.34 -4 10 C-4 5.28093812 -2.71245796 3.72962969 0 0 Z " fill="#68A079" transform="translate(314,413)"/>
<path d="M0 0 C0.2475 0.556875 0.495 1.11375 0.75 1.6875 C2.21606015 4.39971127 4.02989471 6.63587365 6 9 C4.56656 9.53190541 3.12804633 10.05015258 1.6875 10.5625 C0.48673828 10.99755859 0.48673828 10.99755859 -0.73828125 11.44140625 C-3 12 -3 12 -6 11 C-5.34 10.01 -4.68 9.02 -4 8 C-3.34 8 -2.68 8 -2 8 C-1.34 5.36 -0.68 2.72 0 0 Z " fill="#328846" transform="translate(242,425)"/>
<path d="M0 0 C1.67542976 0.28604898 3.34385343 0.61781233 5 1 C5 1.66 5 2.32 5 3 C6.65 3.33 8.3 3.66 10 4 C9.67 4.99 9.34 5.98 9 7 C5.37 7 1.74 7 -2 7 C-0.68 6.67 0.64 6.34 2 6 C1.65213292 4.02463255 1.65213292 4.02463255 1 2 C0.34 1.67 -0.32 1.34 -1 1 C-0.67 0.67 -0.34 0.34 0 0 Z " fill="#38814C" transform="translate(327,433)"/>
<path d="M0 0 C2.875 0.1875 2.875 0.1875 6 1 C7.1953125 3.55078125 7.1953125 3.55078125 8 6 C6.20866022 6.05391993 4.41686101 6.09275571 2.625 6.125 C1.62726563 6.14820313 0.62953125 6.17140625 -0.3984375 6.1953125 C-3 6 -3 6 -5 4 C-3.35 3.34 -1.7 2.68 0 2 C0 1.34 0 0.68 0 0 Z " fill="#3A854D" transform="translate(366,433)"/>
<path d="M0 0 C-1.3255581 3.62276315 -2.94346955 6.63505348 -5.125 9.8125 C-5.66382813 10.60269531 -6.20265625 11.39289063 -6.7578125 12.20703125 C-7.37269531 13.09455078 -7.37269531 13.09455078 -8 14 C-9.20930281 10.02902696 -8.56147135 7.86258703 -7 4 C-4.83989616 0.75984424 -3.8842653 0 0 0 Z " fill="#A9C57B" transform="translate(213,165)"/>
<path d="M0 0 C0.33 1.32 0.66 2.64 1 4 C1.66 4.33 2.32 4.66 3 5 C-2.75 9 -2.75 9 -5 9 C-6.625 6.5 -6.625 6.5 -8 4 C-5.36 2.68 -2.72 1.36 0 0 Z " fill="#529168" transform="translate(226,428)"/>
<path d="M0 0 C2.97 0 5.94 0 9 0 C9.33 1.32 9.66 2.64 10 4 C9.0925 4.144375 8.185 4.28875 7.25 4.4375 C4.78523044 4.86409473 2.41152893 5.35074221 0 6 C0 4.02 0 2.04 0 0 Z " fill="#4E9064" transform="translate(114,434)"/>
<path d="M0 0 C0.33 0 0.66 0 1 0 C1.38133299 1.9914056 1.71325582 3.99279077 2 6 C1 7 1 7 -1.94140625 7.09765625 C-3.73384766 7.08025391 -3.73384766 7.08025391 -5.5625 7.0625 C-7.35880859 7.04896484 -7.35880859 7.04896484 -9.19140625 7.03515625 C-10.11824219 7.02355469 -11.04507812 7.01195312 -12 7 C-11.67 6.01 -11.34 5.02 -11 4 C-7.37 4 -3.74 4 0 4 C0 2.68 0 1.36 0 0 Z " fill="#BCDBA5" transform="translate(395,376)"/>
<path d="M0 0 C-0.33 0.99 -0.66 1.98 -1 3 C-1.556875 3.06058594 -2.11375 3.12117188 -2.6875 3.18359375 C-7.79793457 3.74470565 -12.89999553 4.35090852 -18 5 C-12.72807643 0.36070726 -6.81560969 -0.27818815 0 0 Z " fill="#639C74" transform="translate(366,389)"/>
<path d="M0 0 C0.66 0.99 1.32 1.98 2 3 C0.35 4.65 -1.3 6.3 -3 8 C-3.33 7.34 -3.66 6.68 -4 6 C-4.33 6 -4.66 6 -5 6 C-5.33 8.31 -5.66 10.62 -6 13 C-6.33 13 -6.66 13 -7 13 C-7.22891965 9.96681462 -7.34943364 7.02663287 -7 4 C-4.75938325 1.52759532 -3.17070471 1.05690157 0 0 Z " fill="#56956C" transform="translate(327,385)"/>
<path d="M0 0 C0.33 0 0.66 0 1 0 C1 3.3 1 6.6 1 10 C1.928125 9.79375 2.85625 9.5875 3.8125 9.375 C7 9 7 9 10 11 C6.12731266 13.65555703 4.97993805 14 0 14 C0 9.38 0 4.76 0 0 Z " fill="#B9CE8F" transform="translate(269,333)"/>
<path d="M0 0 C1.32 0.66 2.64 1.32 4 2 C2.2126038 3.33905267 0.41995047 4.67109066 -1.375 6 C-2.37273437 6.7425 -3.37046875 7.485 -4.3984375 8.25 C-7 10 -7 10 -9 10 C-8.6875 8.125 -8.6875 8.125 -8 6 C-7.01 5.34 -6.02 4.68 -5 4 C-3.32576317 2.67618483 -1.65788785 1.34423339 0 0 Z " fill="#B0CA81" transform="translate(293,329)"/>
<path d="M0 0 C2 2 2 2 2 5 C2.66 5 3.32 5 4 5 C5.65 8.3 7.3 11.6 9 15 C7 15 7 15 4.875 13 C4.25625 12.34 3.6375 11.68 3 11 C2.01 11.495 2.01 11.495 1 12 C-0.3271261 8.0186217 -0.06915913 4.14954773 0 0 Z " fill="#ACC975" transform="translate(194,267)"/>
<path d="M0 0 C0 0.33 0 0.66 0 1 C-14 1 -14 1 -16 0 C-16 0.66 -16 1.32 -16 2 C-17.32 1.34 -18.64 0.68 -20 0 C-13.12474069 -2.2917531 -6.79022385 -3.39511192 0 0 Z " fill="#71A381" transform="translate(207,391)"/>
<path d="M0 0 C1.32 0.66 2.64 1.32 4 2 C3.34 2.66 2.68 3.32 2 4 C1.75660449 6.89883083 1.75660449 6.89883083 1.875 10.125 C1.89304687 11.22070312 1.91109375 12.31640625 1.9296875 13.4453125 C1.95289063 14.28835938 1.97609375 15.13140625 2 16 C1.01 15.67 0.02 15.34 -1 15 C-1.02685412 12.68756208 -1.04632841 10.3750373 -1.0625 8.0625 C-1.07410156 6.77472656 -1.08570313 5.48695313 -1.09765625 4.16015625 C-1 1 -1 1 0 0 Z " fill="#9BBF79" transform="translate(382,366)"/>
<path d="M0 0 C1.32 0.66 2.64 1.32 4 2 C3.01 2.495 3.01 2.495 2 3 C2.165 4.175625 2.33 5.35125 2.5 6.5625 C2.98728512 10.41273873 3.08077957 14.12258073 3 18 C1.06559178 15.09838767 0.48715842 13.46278378 -0.1875 10.125 C-0.45626953 8.86042969 -0.45626953 8.86042969 -0.73046875 7.5703125 C-1.0200913 4.80840467 -0.67706227 2.6794379 0 0 Z " fill="#BACB8A" transform="translate(130,239)"/>
<path d="M0 0 C0 3.32311159 -0.65206575 4.72421036 -2.1875 7.625 C-2.79658203 8.81996094 -2.79658203 8.81996094 -3.41796875 10.0390625 C-5 12 -5 12 -7.67578125 12.7734375 C-8.44277344 12.84820312 -9.20976562 12.92296875 -10 13 C-8.48446596 9.52224821 -6.4226544 7.0442016 -3.875 4.25 C-3.15054688 3.45078125 -2.42609375 2.6515625 -1.6796875 1.828125 C-0.84824219 0.92320313 -0.84824219 0.92320313 0 0 Z " fill="#B5CA85" transform="translate(220,84)"/>
<path d="M0 0 C1.9375 0.3125 1.9375 0.3125 4 1 C4.33 1.99 4.66 2.98 5 4 C7.29629994 5.14814997 9.07698086 5.30769809 11.625 5.5625 C12.44226563 5.64628906 13.25953125 5.73007812 14.1015625 5.81640625 C14.72804688 5.87699219 15.35453125 5.93757813 16 6 C16 6.33 16 6.66 16 7 C5.02407002 7.63019694 5.02407002 7.63019694 0.75 5 C0.1725 4.34 -0.405 3.68 -1 3 C-0.67 2.01 -0.34 1.02 0 0 Z " fill="#6E9F80" transform="translate(290,434)"/>
<path d="M0 0 C0.99 0.33 1.98 0.66 3 1 C3 11.56 3 22.12 3 33 C2.67 33 2.34 33 2 33 C1.97494385 32.10692139 1.9498877 31.21384277 1.92407227 30.29370117 C1.82889814 26.97814546 1.72966717 23.66276271 1.62768555 20.34741211 C1.58439207 18.91288997 1.54271301 17.47831816 1.50268555 16.04370117 C1.44484733 13.9808048 1.38119247 11.91815717 1.31640625 9.85546875 C1.26141968 7.99378052 1.26141968 7.99378052 1.20532227 6.09448242 C1.12855879 2.96446653 1.12855879 2.96446653 0 0 Z " fill="#286F43" transform="translate(355,394)"/>
<path d="M0 0 C0.33 0 0.66 0 1 0 C0.855625 1.093125 0.71125 2.18625 0.5625 3.3125 C-0.09310693 8.529258 -0.54748223 13.76234747 -1 19 C-1.66 19 -2.32 19 -3 19 C-3.39325819 12.02330843 -2.63096039 6.48343811 0 0 Z " fill="#C2D3A4" transform="translate(271,300)"/>
<path d="M0 0 C1.39460991 2.78921982 0.58060045 4.12077103 -0.3125 7.0625 C-0.57675781 7.96097656 -0.84101563 8.85945313 -1.11328125 9.78515625 C-2 12 -2 12 -4 13 C-4 12.34 -4 11.68 -4 11 C-5.32 11.33 -6.64 11.66 -8 12 C-6.85573734 10.186508 -5.70954608 8.37423275 -4.5625 6.5625 C-3.60537109 5.04849609 -3.60537109 5.04849609 -2.62890625 3.50390625 C-1 1 -1 1 0 0 Z " fill="#B3CB83" transform="translate(286,280)"/>
<path d="M0 0 C0.33 0 0.66 0 1 0 C1 3.63 1 7.26 1 11 C-0.32 11.33 -1.64 11.66 -3 12 C-3 12.66 -3 13.32 -3 14 C-3.66 14 -4.32 14 -5 14 C-3.45730076 9.27934033 -1.92205381 4.58335908 0 0 Z " fill="#ADC779" transform="translate(300,252)"/>
<path d="M0 0 C1.52519276 0.08937803 3.04681929 0.24537146 4.5625 0.4375 C5.80193359 0.59025391 5.80193359 0.59025391 7.06640625 0.74609375 C7.70449219 0.82988281 8.34257812 0.91367187 9 1 C8 4 8 4 6 5 C5.01 6.485 5.01 6.485 4 8 C4 7.34 4 6.68 4 6 C3.01 6.33 2.02 6.66 1 7 C1.33 5.68 1.66 4.36 2 3 C1.01 2.34 0.02 1.68 -1 1 C-0.67 0.67 -0.34 0.34 0 0 Z " fill="#73B453" transform="translate(384,366)"/>
<path d="M0 0 C2.97 0.495 2.97 0.495 6 1 C4.02 4.96 2.04 8.92 0 13 C-1.06671952 9.79984144 -0.94845472 8.11455706 -0.5625 4.8125 C-0.46066406 3.91144531 -0.35882813 3.01039063 -0.25390625 2.08203125 C-0.17011719 1.39496094 -0.08632813 0.70789063 0 0 Z " fill="#508D63" transform="translate(265,269)"/>
<path d="M0 0 C1 2 1 2 0.3125 4.8125 C-1.06108607 8.14835189 -2.53150239 10.38189648 -5 13 C-5.99 13.33 -6.98 13.66 -8 14 C-6.6744419 10.37723685 -5.05653045 7.36494652 -2.875 4.1875 C-2.33617187 3.39730469 -1.79734375 2.60710937 -1.2421875 1.79296875 C-0.83226562 1.20128906 -0.42234375 0.60960937 0 0 Z " fill="#B6CE8B" transform="translate(174,141)"/>
<path d="M0 0 C1.65 0.33 3.3 0.66 5 1 C2.91560918 4.12658623 2.1536966 4.4231517 -1 6 C-1.99 7.485 -1.99 7.485 -3 9 C-3.99 8.67 -4.98 8.34 -6 8 C-4.7260411 5.96166576 -3.38938077 3.96147874 -2 2 C-1.34 2 -0.68 2 0 2 C0 1.34 0 0.68 0 0 Z " fill="#B3C882" transform="translate(242,59)"/>
<path d="M0 0 C4.95 0 9.9 0 15 0 C15 0.99 15 1.98 15 3 C12.87561661 3.08078641 10.7503677 3.13909141 8.625 3.1875 C7.44164062 3.22230469 6.25828125 3.25710938 5.0390625 3.29296875 C3.53472656 3.14794922 3.53472656 3.14794922 2 3 C1.34 2.01 0.68 1.02 0 0 Z " fill="#699A79" transform="translate(361,438)"/>
<path d="M0 0 C0.99 0.66 1.98 1.32 3 2 C3 2.99 3 3.98 3 5 C-0.33333333 8 -0.33333333 8 -3 8 C-3.33 6.02 -3.66 4.04 -4 2 C-2.68 1.34 -1.36 0.68 0 0 Z " fill="#609572" transform="translate(382,430)"/>
<path d="M0 0 C1.99789249 2.99683874 2.74756206 4.4658688 3 8 C1.625 10.8125 1.625 10.8125 0 13 C-0.33 13 -0.66 13 -1 13 C-1.02696365 11.20841511 -1.04637917 9.41671527 -1.0625 7.625 C-1.07410156 6.62726563 -1.08570313 5.62953125 -1.09765625 4.6015625 C-1 2 -1 2 0 0 Z " fill="#6E9D7C" transform="translate(237,187)"/>
<path d="M0 0 C2.48527616 0.41421269 4.5934637 0.77570411 6.8125 2 C10.12151067 3.51269059 13.38832248 3.63883225 17 4 C17 4.33 17 4.66 17 5 C6.31569507 5.76681614 6.31569507 5.76681614 3.08984375 3.88671875 C1.75 2.5 1.75 2.5 0 0 Z " fill="#78A788" transform="translate(260,436)"/>
<path d="M0 0 C0 0.99 0 1.98 0 3 C1.32 3.33 2.64 3.66 4 4 C1.1875 6.0625 1.1875 6.0625 -2 8 C-2.99 7.67 -3.98 7.34 -5 7 C-4.67 6.34 -4.34 5.68 -4 5 C-3.34 5 -2.68 5 -2 5 C-2 4.34 -2 3.68 -2 3 C-2.66 2.34 -3.32 1.68 -4 1 C-2 0 -2 0 0 0 Z " fill="#63A078" transform="translate(283,431)"/>
<path d="M0 0 C2 2 2 2 2.265625 4.75 C2.25789063 6.35875 2.25789063 6.35875 2.25 8 C2.25515625 9.0725 2.2603125 10.145 2.265625 11.25 C2 14 2 14 0 16 C-0.19441368 13.7089095 -0.38033135 11.41709663 -0.5625 9.125 C-0.71912109 7.21074219 -0.71912109 7.21074219 -0.87890625 5.2578125 C-1 2 -1 2 0 0 Z " fill="#6D977A" transform="translate(347,415)"/>
<path d="M0 0 C0.99 0 1.98 0 3 0 C2.71682074 1.60568666 2.42312209 3.20952047 2.125 4.8125 C1.96257812 5.70582031 1.80015625 6.59914062 1.6328125 7.51953125 C1 10 1 10 -1 13 C-1.02696365 11.20841511 -1.04637917 9.41671527 -1.0625 7.625 C-1.07410156 6.62726563 -1.08570313 5.62953125 -1.09765625 4.6015625 C-1 2 -1 2 0 0 Z " fill="#AEC679" transform="translate(355,248)"/>
<path d="M0 0 C0.33 0 0.66 0 1 0 C1.38873828 1.95565258 1.76060833 3.91466504 2.125 5.875 C2.33382812 6.96554688 2.54265625 8.05609375 2.7578125 9.1796875 C2.83773437 10.11039063 2.91765625 11.04109375 3 12 C2.34 12.66 1.68 13.32 1 14 C0.35232207 16.57061311 0.35232207 16.57061311 0 19 C-0.33 19 -0.66 19 -1 19 C-0.67 12.73 -0.34 6.46 0 0 Z " fill="#5F9674" transform="translate(235,200)"/>
<path d="M0 0 C1 3 1 3 0.07421875 4.9375 C-0.61220703 5.9584375 -0.61220703 5.9584375 -1.3125 7 C-1.98732422 8.0209375 -1.98732422 8.0209375 -2.67578125 9.0625 C-3.11277344 9.701875 -3.54976562 10.34125 -4 11 C-4.66 11.99 -5.32 12.98 -6 14 C-7.25541557 10.23375329 -6.37061958 8.62811066 -5 5 C-4.01 5 -3.02 5 -2 5 C-1.855625 4.360625 -1.71125 3.72125 -1.5625 3.0625 C-1 1 -1 1 0 0 Z " fill="#AEC77C" transform="translate(201,182)"/>
<path d="M0 0 C2.31 0 4.62 0 7 0 C6.67 1.32 6.34 2.64 6 4 C1.25 5.125 1.25 5.125 -1 4 C-0.67 2.68 -0.34 1.36 0 0 Z " fill="#478C5B" transform="translate(113,374)"/>
<path d="M0 0 C-0.33 1.98 -0.66 3.96 -1 6 C-2.32 5.67 -3.64 5.34 -5 5 C-5.33 6.98 -5.66 8.96 -6 11 C-6.33 11 -6.66 11 -7 11 C-7.48798077 4.65625 -7.48798077 4.65625 -5.1875 1.5625 C-3 0 -3 0 0 0 Z " fill="#639C74" transform="translate(363,368)"/>
<path d="M0 0 C0.33 0.66 0.66 1.32 1 2 C2.65 2 4.3 2 6 2 C6.33 3.32 6.66 4.64 7 6 C5.35 6.33 3.7 6.66 2 7 C0.5393715 4.35261084 0 3.10551666 0 0 Z " fill="#69A076" transform="translate(104,387)"/>
<path d="M0 0 C0.99 0 1.98 0 3 0 C3 0.66 3 1.32 3 2 C5.64 1.67 8.28 1.34 11 1 C11 1.99 11 2.98 11 4 C7.37 4 3.74 4 0 4 C0 2.68 0 1.36 0 0 Z " fill="#33834B" transform="translate(103,376)"/>
<path d="M0 0 C2.97 0.495 2.97 0.495 6 1 C5.34 3.31 4.68 5.62 4 8 C1.44971017 6.72485508 1.06918289 5.59658703 0 3 C0 2.01 0 1.02 0 0 Z " fill="#629770" transform="translate(208,250)"/>
<path d="M0 0 C1.32 0.33 2.64 0.66 4 1 C4.33 2.98 4.66 4.96 5 7 C3.35 6.67 1.7 6.34 0 6 C0 4.02 0 2.04 0 0 Z " fill="#35834A" transform="translate(234,220)"/>
<path d="M0 0 C0.598125 0.350625 1.19625 0.70125 1.8125 1.0625 C1.8125 2.3825 1.8125 3.7025 1.8125 5.0625 C-1.14925123 4.44972388 -2.56808783 3.80877478 -5.1875 2.0625 C-5.1875 1.4025 -5.1875 0.7425 -5.1875 0.0625 C-2.1875 -0.9375 -2.1875 -0.9375 0 0 Z " fill="#518E60" transform="translate(317.1875,433.9375)"/>
<path d="M0 0 C0 0.99 0 1.98 0 3 C-0.66 3 -1.32 3 -2 3 C-2 3.66 -2 4.32 -2 5 C-2.66 5 -3.32 5 -4 5 C-4.33 5.66 -4.66 6.32 -5 7 C-5 6.34 -5 5.68 -5 5 C-6.98 5.99 -6.98 5.99 -9 7 C-9.33 6.34 -9.66 5.68 -10 5 C-9.34 4.34 -8.68 3.68 -8 3 C-7.01 3.33 -6.02 3.66 -5 4 C-5 3.34 -5 2.68 -5 2 C-2 0 -2 0 0 0 Z " fill="#C9D6A7" transform="translate(331,296)"/>
<path d="M0 0 C0.99 0.33 1.98 0.66 3 1 C3 7.27 3 13.54 3 20 C2.67 20 2.34 20 2 20 C1.93941406 18.97519531 1.87882812 17.95039063 1.81640625 16.89453125 C1.73194974 15.53384305 1.64730433 14.17316657 1.5625 12.8125 C1.52318359 12.13896484 1.48386719 11.46542969 1.44335938 10.77148438 C1.21072435 7.10300898 0.82792989 3.58305794 0 0 Z " fill="#B1C884" transform="translate(302,217)"/>
<path d="M0 0 C3.08089673 2.77280706 4.68775452 5.06326356 6 9 C4.35 9.33 2.7 9.66 1 10 C0.22157062 6.59437148 -0.09978121 3.49234244 0 0 Z " fill="#53906A" transform="translate(263,181)"/>
<path d="M0 0 C2.97 0.495 2.97 0.495 6 1 C5.34 2.32 4.68 3.64 4 5 C2.02 5 0.04 5 -2 5 C-1.34 4.67 -0.68 4.34 0 4 C0 2.68 0 1.36 0 0 Z " fill="#388252" transform="translate(248,435)"/>
<path d="M0 0 C0 0.99 0 1.98 0 3 C-4.29 3 -8.58 3 -13 3 C-8.54370064 0.02913376 -5.32064558 -0.12092376 0 0 Z " fill="#71A681" transform="translate(236,389)"/>
<path d="M0 0 C1.32 0.33 2.64 0.66 4 1 C4.70211894 2.65204456 5.36971413 4.31923769 6 6 C6.99 6.33 7.98 6.66 9 7 C9 8.32 9 9.64 9 11 C8.34 11 7.68 11 7 11 C7 10.34 7 9.68 7 9 C6.34 9 5.68 9 5 9 C3.35 6.03 1.7 3.06 0 0 Z " fill="#BCCF93" transform="translate(140,273)"/>
<path d="M0 0 C0.66 0.33 1.32 0.66 2 1 C2 1.99 2 2.98 2 4 C-0.875 4.625 -0.875 4.625 -4 5 C-4.66 4.34 -5.32 3.68 -6 3 C-4.03533587 1.93224776 -2.03144641 0.93446535 0 0 Z " fill="#458B5D" transform="translate(219,434)"/>
<path d="M0 0 C3.36338044 3.36338044 4 6.28835716 4 11 C3.34 11 2.68 11 2 11 C2 10.34 2 9.68 2 9 C1.01 9.33 0.02 9.66 -1 10 C-0.835 9.0925 -0.67 8.185 -0.5 7.25 C0.10137146 3.88912497 0.10137146 3.88912497 0 0 Z " fill="#ADC57A" transform="translate(347,197)"/>
<path d="M0 0 C1.32 0.33 2.64 0.66 4 1 C3.67 3.64 3.34 6.28 3 9 C2.01 8.34 1.02 7.68 0 7 C-0.1875 3.375 -0.1875 3.375 0 0 Z " fill="#318348" transform="translate(226,191)"/>
<path d="M0 0 C0.33 1.32 0.66 2.64 1 4 C2.98 4.495 2.98 4.495 5 5 C5 5.66 5 6.32 5 7 C4.01 7 3.02 7 2 7 C2 9.64 2 12.28 2 15 C1.67 15 1.34 15 1 15 C0.67 10.05 0.34 5.1 0 0 Z " fill="#73A380" transform="translate(256,181)"/>
<path d="M0 0 C1.32 0.33 2.64 0.66 4 1 C3.02471263 2.33617352 2.04466681 3.6688751 1.0625 5 C0.51722656 5.7425 -0.02804688 6.485 -0.58984375 7.25 C-1.28787109 8.11625 -1.28787109 8.11625 -2 9 C-2.33 9 -2.66 9 -3 9 C-3 7.35 -3 5.7 -3 4 C-2.34 4 -1.68 4 -1 4 C-0.67 2.68 -0.34 1.36 0 0 Z " fill="#B0C886" transform="translate(216,156)"/>
<path d="M0 0 C0.33 0.66 0.66 1.32 1 2 C-0.3125 4.625 -0.3125 4.625 -2 7 C-2.66 7 -3.32 7 -4 7 C-4 8.65 -4 10.3 -4 12 C-5.32 11.67 -6.64 11.34 -8 11 C-6.625 8.5 -6.625 8.5 -5 6 C-4.34 6 -3.68 6 -3 6 C-2.690625 5.195625 -2.38125 4.39125 -2.0625 3.5625 C-1 1 -1 1 0 0 Z " fill="#B9CF96" transform="translate(208,98)"/>
<path d="M0 0 C1.65 0 3.3 0 5 0 C5.66 1.32 6.32 2.64 7 4 C4.50907189 5.24546405 3.58919267 4.7767578 1 4 C0.67 2.68 0.34 1.36 0 0 Z " fill="#3A8750" transform="translate(338,407)"/>
<path d="M0 0 C0.66 0 1.32 0 2 0 C2 0.99 2 1.98 2 3 C3.32 3.33 4.64 3.66 6 4 C6.625 6.375 6.625 6.375 7 9 C6.34 9.66 5.68 10.32 5 11 C4.16426177 9.35538655 3.33147118 7.70927487 2.5 6.0625 C2.0359375 5.14597656 1.571875 4.22945313 1.09375 3.28515625 C0 1 0 1 0 0 Z " fill="#6DA17B" transform="translate(215,265)"/>
<path d="M0 0 C0.66 0.33 1.32 0.66 2 1 C1.01 2.485 1.01 2.485 0 4 C1.65 4 3.3 4 5 4 C3.6875 5.5 3.6875 5.5 2 7 C1.01 7 0.02 7 -1 7 C-1.66 5.68 -2.32 4.36 -3 3 C-2.01 2.01 -1.02 1.02 0 0 Z " fill="#75A486" transform="translate(219,393)"/>
<path d="M0 0 C2.9375 0.375 2.9375 0.375 6 1 C6.33 1.66 6.66 2.32 7 3 C6.01 4.485 6.01 4.485 5 6 C4.34 5.34 3.68 4.68 3 4 C0.42938689 3.35232207 0.42938689 3.35232207 -2 3 C-1.34 2.67 -0.68 2.34 0 2 C0 1.34 0 0.68 0 0 Z " fill="#31824B" transform="translate(120,374)"/>
<path d="M0 0 C0.66 1.32 1.32 2.64 2 4 C-2.75 8 -2.75 8 -5 8 C-3.62845496 5.04590299 -2.01136276 2.55991624 0 0 Z " fill="#B1C97E" transform="translate(277,292)"/>
<path d="M0 0 C0.66 0.33 1.32 0.66 2 1 C2 1.66 2 2.32 2 3 C2.66 3 3.32 3 4 3 C4.66 4.65 5.32 6.3 6 8 C5.01 8.33 4.02 8.66 3 9 C2.67 7.35 2.34 5.7 2 4 C1.01 3.67 0.02 3.34 -1 3 C-0.67 2.01 -0.34 1.02 0 0 Z " fill="#ACC67F" transform="translate(250,65)"/>
<path d="M0 0 C0.391875 0.45375 0.78375 0.9075 1.1875 1.375 C3.30832487 3.27642919 5.33042235 4.06204028 8 5 C8 5.66 8 6.32 8 7 C4.62537285 6.45276317 2.91765 5.9451 0 4 C0 2.68 0 1.36 0 0 Z " fill="#C0D296" transform="translate(256,73)"/>
<path d="M0 0 C2.97 0.495 2.97 0.495 6 1 C4.90181099 4.29456702 4.08996146 5.45501927 1 7 C0.67 4.69 0.34 2.38 0 0 Z " fill="#358346" transform="translate(276,432)"/>
<path d="M0 0 C0.66 0.66 1.32 1.32 2 2 C3.31747324 2.69748583 4.64914193 3.36959957 6 4 C5.34 4.66 4.68 5.32 4 6 C1.875 5.625 1.875 5.625 0 5 C-0.5625 3.0625 -0.5625 3.0625 -1 1 C-0.67 0.67 -0.34 0.34 0 0 Z " fill="#7CA489" transform="translate(347,394)"/>
<path d="M0 0 C0.99 0.33 1.98 0.66 3 1 C3 3.64 3 6.28 3 9 C2.34 9 1.68 9 1 9 C0.67 6.03 0.34 3.06 0 0 Z " fill="#6CA64D" transform="translate(395,372)"/>
<path d="M0 0 C0.33 0.99 0.66 1.98 1 3 C3.00016466 4.20882096 3.00016466 4.20882096 5 5 C3.02 5.99 3.02 5.99 1 7 C0.01 6.01 -0.98 5.02 -2 4 C-1.34 2.68 -0.68 1.36 0 0 Z " fill="#6F9E81" transform="translate(278,370)"/>
<path d="M0 0 C3.28788824 3.11016455 5.83735988 6.01618925 8 10 C6.1875 9.875 6.1875 9.875 4 9 C2.26918256 6.05119992 1.08011848 3.24035543 0 0 Z " fill="#BFD096" transform="translate(311,138)"/>
<path d="M0 0 C-0.969375 0.433125 -1.93875 0.86625 -2.9375 1.3125 C-6.27731765 2.7014861 -6.27731765 2.7014861 -7 6 C-7.99 5.67 -8.98 5.34 -10 5 C-9.375 3.125 -9.375 3.125 -8 1 C-2.66666667 -1.33333333 -2.66666667 -1.33333333 0 0 Z " fill="#5E9E70" transform="translate(255,433)"/>
<path d="M0 0 C2.31 0 4.62 0 7 0 C6.67 0.99 6.34 1.98 6 3 C4.02 3 2.04 3 0 3 C0 2.01 0 1.02 0 0 Z " fill="#77A98B" transform="translate(359,389)"/>
<path d="M0 0 C0.66 0 1.32 0 2 0 C1.34 3.3 0.68 6.6 0 10 C-0.33 9.34 -0.66 8.68 -1 8 C-1.66 7.67 -2.32 7.34 -3 7 C-2.01 4.69 -1.02 2.38 0 0 Z " fill="#2F7B4A" transform="translate(111,381)"/>
<path d="M0 0 C6.15234375 0.5859375 6.15234375 0.5859375 8 1 C8.33 1.66 8.66 2.32 9 3 C2.25 4.125 2.25 4.125 0 3 C0 2.01 0 1.02 0 0 Z " fill="#357E4D" transform="translate(279,370)"/>
<path d="M0 0 C0.33 0 0.66 0 1 0 C1.33 3.3 1.66 6.6 2 10 C0.68 9.67 -0.64 9.34 -2 9 C-1.34 6.03 -0.68 3.06 0 0 Z " fill="#619773" transform="translate(211,211)"/>
<path d="M0 0 C0.66 1.32 1.32 2.64 2 4 C1.01 4.495 1.01 4.495 0 5 C0 5.66 0 6.32 0 7 C-0.99 7 -1.98 7 -3 7 C-1.125 1.125 -1.125 1.125 0 0 Z " fill="#B2CB7F" transform="translate(162,160)"/>
<path d="M0 0 C0.33 0.66 0.66 1.32 1 2 C-0.6875 4.0625 -0.6875 4.0625 -3 6 C-5.75 5.75 -5.75 5.75 -8 5 C-5.59078295 2.59078295 -3.05665491 1.46187844 0 0 Z " fill="#669A78" transform="translate(226,428)"/>
<path d="M0 0 C2 2 2 2 2 5 C2.66 5 3.32 5 4 5 C4.33 6.32 4.66 7.64 5 9 C3.68 8.67 2.36 8.34 1 8 C0.67 5.36 0.34 2.72 0 0 Z " fill="#B5CA8C" transform="translate(194,267)"/>
<path d="M0 0 C0.99 0 1.98 0 3 0 C1.25 5.75 1.25 5.75 -1 8 C-1.625 5.6875 -1.625 5.6875 -2 3 C-1.34 2.01 -0.68 1.02 0 0 Z " fill="#5D936E" transform="translate(277,251)"/>
<path d="M0 0 C-0.33 2.64 -0.66 5.28 -1 8 C-1.66 8 -2.32 8 -3 8 C-3 5.69 -3 3.38 -3 1 C-1 0 -1 0 0 0 Z " fill="#A9C674" transform="translate(188,209)"/>
<path d="M0 0 C1.32 0.33 2.64 0.66 4 1 C4.33 3.64 4.66 6.28 5 9 C2.67527795 6.14693203 1.2491742 3.45925163 0 0 Z " fill="#BACD90" transform="translate(288,186)"/>
<path d="M0 0 C0 1.65 0 3.3 0 5 C-0.33 4.34 -0.66 3.68 -1 3 C-1.61875 3.20625 -2.2375 3.4125 -2.875 3.625 C-3.57625 3.74875 -4.2775 3.8725 -5 4 C-5.66 3.34 -6.32 2.68 -7 2 C-4.35261084 0.5393715 -3.10551666 0 0 0 Z " fill="#649774" transform="translate(232,178)"/>
<path d="M0 0 C2.12508244 3.18762365 2.5020163 5.26512223 3 9 C2.01 9 1.02 9 0 9 C0 6.03 0 3.06 0 0 Z " fill="#B3C97F" transform="translate(332,172)"/>
<path d="M0 0 C2.99324263 1.0975223 3.84610901 1.67682892 5.25 4.625 C5.4975 5.40875 5.745 6.1925 6 7 C4.68 6.67 3.36 6.34 2 6 C2 5.34 2 4.68 2 4 C1.34 3.67 0.68 3.34 0 3 C0 2.01 0 1.02 0 0 Z " fill="#B1CA81" transform="translate(289,113)"/>
<path d="M0 0 C0.66 0.33 1.32 0.66 2 1 C2 1.66 2 2.32 2 3 C2.99 3.33 3.98 3.66 5 4 C4.34 4.66 3.68 5.32 3 6 C1.0625 5.1875 1.0625 5.1875 -1 4 C-1.33 3.01 -1.66 2.02 -2 1 C-1.34 0.67 -0.68 0.34 0 0 Z " fill="#639774" transform="translate(232,434)"/>
<path d="M0 0 C1.98 0.495 1.98 0.495 4 1 C3.67 2.65 3.34 4.3 3 6 C2.34 6 1.68 6 1 6 C1 5.34 1 4.68 1 4 C0.34 3.67 -0.32 3.34 -1 3 C-0.67 2.01 -0.34 1.02 0 0 Z " fill="#358251" transform="translate(315,412)"/>
<path d="M0 0 C3.68754757 0.49831724 5.60490662 1.10067643 8 4 C4 4 4 4 1.75 2 C1.1725 1.34 0.595 0.68 0 0 Z " fill="#B7CB8F" transform="translate(207,341)"/>
<path d="M0 0 C0.33 0 0.66 0 1 0 C1.36629408 4.27343092 0.40814077 6.48812804 -2 10 C-3 7 -3 7 -3 4 C-2.34 4 -1.68 4 -1 4 C-0.67 2.68 -0.34 1.36 0 0 Z " fill="#B3CB84" transform="translate(352,261)"/>
<path d="M0 0 C0.33 0 0.66 0 1 0 C1 2.64 1 5.28 1 8 C0.01 8 -0.98 8 -2 8 C-2 7.34 -2 6.68 -2 6 C-2.66 5.67 -3.32 5.34 -4 5 C-3.525625 4.54625 -3.05125 4.0925 -2.5625 3.625 C-0.90972192 2.06741796 -0.90972192 2.06741796 0 0 Z " fill="#69A37A" transform="translate(253,208)"/>
<path d="M0 0 C1.61949011 2.57213134 2.04408751 3.67669159 1.625 6.75 C1.41875 7.4925 1.2125 8.235 1 9 C0.01 9 -0.98 9 -2 9 C-1.51421457 5.87709365 -1.0013988 3.00419641 0 0 Z " fill="#79AA88" transform="translate(216,196)"/>
<path d="M0 0 C0.33 0 0.66 0 1 0 C0.67 3.63 0.34 7.26 0 11 C-1 9 -2 7 -3 5 C-1.625 2.375 -1.625 2.375 0 0 Z " fill="#81B292" transform="translate(231,185)"/>
<path d="M0 0 C0.99 0.495 0.99 0.495 2 1 C2 2.32 2 3.64 2 5 C2.66 5.33 3.32 5.66 4 6 C3.67 6.66 3.34 7.32 3 8 C2.34 8 1.68 8 1 8 C-0.35439668 5.29120665 -0.06501451 2.99066732 0 0 Z " fill="#357D4D" transform="translate(104,381)"/>
<path d="M0 0 C0.33 0 0.66 0 1 0 C0.67 2.31 0.34 4.62 0 7 C-0.99 7 -1.98 7 -3 7 C-2.67 5.68 -2.34 4.36 -2 3 C-1.34 3 -0.68 3 0 3 C0 2.01 0 1.02 0 0 Z " fill="#6EA37F" transform="translate(372,374)"/>
<path d="M0 0 C0.99 0.33 1.98 0.66 3 1 C2.34 2.98 1.68 4.96 1 7 C0.34 7 -0.32 7 -1 7 C-1.04254356 5.00045254 -1.04080783 2.99958364 -1 1 C-0.67 0.67 -0.34 0.34 0 0 Z " fill="#347D47" transform="translate(358,372)"/>
<path d="M0 0 C4.875 1.75 4.875 1.75 6 4 C4.02 4.99 4.02 4.99 2 6 C2 5.34 2 4.68 2 4 C1.34 3.67 0.68 3.34 0 3 C0 2.01 0 1.02 0 0 Z " fill="#A8C470" transform="translate(298,321)"/>
<path d="M0 0 C5.75 1.625 5.75 1.625 8 5 C5 5 5 5 2.3125 2.5 C1.549375 1.675 0.78625 0.85 0 0 Z " fill="#B3CA8B" transform="translate(174,314)"/>
<path d="M0 0 C2.35171131 0.59861742 4.6859378 1.26924352 7 2 C7.33 2.66 7.66 3.32 8 4 C7.01 4.33 6.02 4.66 5 5 C4.34 4.67 3.68 4.34 3 4 C3 3.34 3 2.68 3 2 C2.01 1.67 1.02 1.34 0 1 C0 0.67 0 0.34 0 0 Z " fill="#B0C984" transform="translate(153,289)"/>
<path d="M0 0 C0.66 0 1.32 0 2 0 C1.34 1.98 0.68 3.96 0 6 C-1.32 6 -2.64 6 -4 6 C-3.34 5.67 -2.68 5.34 -2 5 C-1.27840576 3.35636866 -0.60648579 1.68949614 0 0 Z " fill="#357546" transform="translate(252,206)"/>
<path d="M0 0 C2.97 0.495 2.97 0.495 6 1 C6 1.66 6 2.32 6 3 C4.35 3.33 2.7 3.66 1 4 C0.67 2.68 0.34 1.36 0 0 Z " fill="#499270" transform="translate(256,178)"/>
<path d="M0 0 C6.625 -0.25 6.625 -0.25 10 2 C10 2.66 10 3.32 10 4 C6.7 3.01 3.4 2.02 0 1 C0 0.67 0 0.34 0 0 Z " fill="#BFD295" transform="translate(250,145)"/>
</svg>
